<svg xmlns="http://www.w3.org/2000/svg" viewBox="0 0 985.76 633.91"><defs><style>.cls-1{fill:#28b04c;}</style></defs><title>bike</title><g id="Layer_2" data-name="Layer 2"><g id="Layer_3" data-name="Layer 3"><path d="M138.77,356.38A138.77,138.77,0,1,0,277.53,495.14,138.76,138.76,0,0,0,138.77,356.38Z"/><path d="M847,356A138.77,138.77,0,1,0,985.76,494.8,138.77,138.77,0,0,0,847,356Zm0,256.6A117.49,117.49,0,1,1,964.48,495.14,117.49,117.49,0,0,1,847,612.63Z"/><circle class="cls-1" cx="138.77" cy="495.14" r="117.49"/><path d="M738.44,238.86l7.65,60.81H527.34l-4.81-14.82h38.22a4.2,4.2,0,0,0,4.2-4.2V267a4.2,4.2,0,0,0-4.2-4.2h-102a4.2,4.2,0,0,0-4.19,4.2v13.65a4.2,4.2,0,0,0,4.19,4.2h42.42L506,299.67H270.15l-4.81-14.82h36.74a4.2,4.2,0,0,0,4.19-4.2V267a4.2,4.2,0,0,0-4.19-4.2H200a4.19,4.19,0,0,0-4.19,4.2v13.65a4.19,4.19,0,0,0,4.19,4.2h43.9l7.8,24v3.65L150.14,453.85V347.37H187a5,5,0,0,0,5-5v-12a5,5,0,0,0-5-5H39.1a5,5,0,0,0-5,5v12a5,5,0,0,0,5,5H59.42l62.41,135.74a19.59,19.59,0,1,0,33.2,2.95L261,337.24l50.42,155.27a37,37,0,1,0,58.88,32H552.55a37,37,0,1,0,63.07-28.45L768.17,350.42,838.8,504a8.06,8.06,0,0,0,4.58,4.24,8.17,8.17,0,0,0,2.83.51,8.09,8.09,0,0,0,3.4-.75l3.4-1.56a8.54,8.54,0,0,0,4.31-4.21,8.07,8.07,0,0,0,0-6.73L802.15,375.62l16.52-32.24h14.09V309.85H816a16.76,16.76,0,0,0-16.77,16.76h0a16.53,16.53,0,0,0,1.57,7l-9.46,18.47-23.61-51.36-.5-1.08-.88-1.9-6.47-51.54c12-7,16.64-10.06,21.24-15.16a16.4,16.4,0,0,0,4.24-10.84,37.36,37.36,0,0,0-.44-6.2,23.17,23.17,0,0,0-23-19.24H708.85L727.69,212H759c4.56,0,7.6,2.38,7.77,7.39a4.89,4.89,0,0,1-.71,2.77,8.06,8.06,0,0,1-2.62,2.64ZM129.79,347.37V451.7l-48-104.33Zm427.4,156.84H365.63a37,37,0,0,0-32.28-18.93c-1,0-1.93.05-2.88.13L276.76,320H512.55L568.37,491.9A37.06,37.06,0,0,0,557.19,504.21ZM596.74,486a37,37,0,0,0-7.27-.72c-.62,0-1.23,0-1.84.05L534,320H754.19l5,10.85Z"/><path d="M360.94,231a6.62,6.62,0,0,0,3.7,4.05L435.27,265a20,20,0,0,0,26.26-10.64h0a20,20,0,0,0-10.63-26.26l-56.56-24-24.27-74.71a16.82,16.82,0,0,0-9.19-11.68L320.06,98.13a29.65,29.65,0,0,0-39.56,13.92L222.45,233.17a29.64,29.64,0,0,0,13.92,39.55l29.31,14c.37.18.74.35,1.12.51a116.1,116.1,0,0,1,12.38,6.05L365,342.88a5.46,5.46,0,0,1,2.71,5.09l-8.58,119.68h0l-1.19,16.54h0l-.88,12.64a10.18,10.18,0,0,0,10.16,10.89h52a20,20,0,0,0,20-20h0a20,20,0,0,0-20-20h-9.06l9.95-137.93a21.23,21.23,0,0,0-10.56-19.92L314,254.59l32.57-67.93Z"/><circle cx="364.44" cy="51.7" r="51.7"/><path d="M635.54,234.86h73.09A19.85,19.85,0,0,0,728.48,215v-.39a19.85,19.85,0,0,0-19.85-19.84H653.74l-39.56-68.51a16.77,16.77,0,0,0-8.2-8.58L565.16,98.13a29.65,29.65,0,0,0-39.56,13.92L467.55,233.17a29.64,29.64,0,0,0,13.92,39.55l29.31,14,.66.31a111.26,111.26,0,0,1,26.38,16.65l56,47.46a8.37,8.37,0,0,1,2.51,9.08L557,475.5a11.3,11.3,0,0,0,7,14.34L604.21,495h0l21.43,2.75a20,20,0,0,0,0-40.07l-8.29-1.2,34.88-102.21a24.51,24.51,0,0,0-7.35-26.62L559,254.86l37.75-78.74,31.47,54.48A8.5,8.5,0,0,0,635.54,234.86Z"/><circle cx="612.11" cy="51.7" r="51.7"/></g></g></svg>