<svg xmlns="http://www.w3.org/2000/svg" viewBox="0 0 414.04 634.67"><defs><style>.cls-1{fill:#fff;}.cls-1,.cls-5{stroke:#000;stroke-miterlimit:10;stroke-width:10px;}.cls-2{fill:#28b04c;}.cls-3{fill:#cccccb;}.cls-4{fill:#218943;}.cls-5{fill:none;}</style></defs><title>hand_white</title><g id="Layer_2" data-name="Layer 2"><g id="Layer_2-2" data-name="Layer 2"><rect class="cls-1" x="27.33" y="5" width="363.17" height="624.67" rx="41.78"/><rect class="cls-2" x="55.94" y="71.22" width="306.22" height="481.45"/><path class="cls-3" d="M390.5,465.61a29.88,29.88,0,0,0-6.46-.7H307.25a39.86,39.86,0,0,0,0,79.71H384a30,30,0,0,0,6-.61Z"/><path class="cls-4" d="M362.16,464.91H307.25a39.86,39.86,0,0,0,0,79.71h54.91Z"/><path class="cls-3" d="M390.5,298.35a29.88,29.88,0,0,0-6.46-.7H307.25a39.86,39.86,0,0,0,0,79.71H384a30,30,0,0,0,6-.61Z"/><path class="cls-4" d="M362.16,297.65H307.25a39.86,39.86,0,0,0,0,79.71h54.91Z"/><path class="cls-3" d="M390.5,214.72A29.88,29.88,0,0,0,384,214H307.25a39.86,39.86,0,0,0,0,79.71H384a30,30,0,0,0,6-.61Z"/><path class="cls-4" d="M362.16,214H307.25a39.86,39.86,0,0,0,0,79.71h54.91Z"/><path class="cls-3" d="M390.5,382a29.88,29.88,0,0,0-6.46-.7H307.25a39.86,39.86,0,0,0,0,79.71H384a30,30,0,0,0,6-.61Z"/><path class="cls-4" d="M362.16,381.28H307.25a39.86,39.86,0,0,0,0,79.71h54.91Z"/><path class="cls-3" d="M197.09,604.7s-3.19-33,29.79-26c-.11-.28-9.29-10.67-9.29-10.67l-14.21-2.29-9.21,4.27L189,576.14l-2.67,10.48,1.35,7.16Z"/><rect x="158.84" y="34.75" width="100.14" height="11.13" rx="5.56"/><circle class="cls-5" cx="208.92" cy="588.45" r="20.98"/><rect class="cls-5" x="27.33" y="5" width="363.17" height="624.67" rx="41.78"/><path class="cls-1" d="M307.25,209H384a25,25,0,0,1,25,25v19.71a25,25,0,0,1-25,25H307.25a34.86,34.86,0,0,1-34.86-34.86v0A34.86,34.86,0,0,1,307.25,209Z"/><path class="cls-1" d="M307.25,459.91H384a25,25,0,0,1,25,25v19.71a25,25,0,0,1-25,25H307.25a34.86,34.86,0,0,1-34.86-34.86v0A34.86,34.86,0,0,1,307.25,459.91Z"/><path class="cls-1" d="M307.25,376.28H384a25,25,0,0,1,25,25V421a25,25,0,0,1-25,25H307.25a34.86,34.86,0,0,1-34.86-34.86v0a34.86,34.86,0,0,1,34.86-34.86Z"/><path class="cls-1" d="M307.25,292.65H384a25,25,0,0,1,25,25v19.71a25,25,0,0,1-25,25H307.25a34.86,34.86,0,0,1-34.86-34.86v0a34.86,34.86,0,0,1,34.86-34.86Z"/><path class="cls-3" d="M55.94,152.34c-10.38,5.11-18.48,8.76-23.71,11l.17,113.35c7.9-4.15,15.78-8.64,23.54-13.34Z"/><path class="cls-4" d="M55.94,263.37C104.88,233.75,149,196,163,183.61A79.39,79.39,0,0,0,173.9,172c22.19-29.2,6.07-49.46-1.48-56.53v-.1l-1.79-1.5c-17.75-14.94-43.94-1.17-45-.58l-.29.17a775.94,775.94,0,0,1-69.35,38.84Z"/><path class="cls-1" d="M27.33,263.71c58.55-30.15,117.08-80.33,132.39-93.85A74.83,74.83,0,0,0,169.92,159c24.39-32.09-2.5-50.95-2.5-51.28-15.37-12.92-39.47,0-39.47,0-58.42,36.66-100.62,53.1-100.62,53.1S-22.91,202.51,27.33,263.71Z"/></g></g></svg>