<svg xmlns="http://www.w3.org/2000/svg" viewBox="0 0 404.04 624.67"><defs><style>.cls-1{fill:none;}.cls-2{fill:#fff;}.cls-3{fill:#28b04c;}</style></defs><title>Asset 1</title><g id="Layer_2" data-name="Layer 2"><g id="Layer_2-2" data-name="Layer 2"><path class="cls-1" d="M267.4,238.87h0A34.85,34.85,0,0,1,302.25,204h54.91V66.22H50.94V547.67H357.16v-23H302.25a34.85,34.85,0,0,1-34.85-34.85h0a34.85,34.85,0,0,1,34.85-34.86h54.91V441H302.25a34.85,34.85,0,0,1-34.85-34.85h0a34.85,34.85,0,0,1,34.85-34.86h54.91V357.36H302.25a34.85,34.85,0,0,1-34.85-34.85h0a34.85,34.85,0,0,1,34.85-34.86h54.91V273.73H302.25A34.85,34.85,0,0,1,267.4,238.87Z"/><path d="M357.16,524.62v23H50.94V66.22H357.16V204H379a25,25,0,0,1,6.46.85V41.78A41.79,41.79,0,0,0,343.72,0H64.11A41.79,41.79,0,0,0,22.33,41.78V582.89a41.78,41.78,0,0,0,41.78,41.78H343.72a41.78,41.78,0,0,0,41.78-41.78V523.78a25,25,0,0,1-6.46.84Z"/><rect class="cls-2" x="153.84" y="29.75" width="100.14" height="11.13" rx="5.56"/><circle class="cls-2" cx="203.92" cy="583.45" r="20.98"/><rect class="cls-3" x="50.94" y="66.22" width="306.22" height="481.45"/><path d="M22.33,258.71c58.55-30.15,117.08-80.33,132.39-93.85A74.83,74.83,0,0,0,164.92,154c24.39-32.09-2.5-50.95-2.5-51.28-15.37-12.92-39.47,0-39.47,0-58.42,36.66-100.62,53.1-100.62,53.1S-27.91,197.51,22.33,258.71Z"/><path d="M385.5,455.76a25,25,0,0,0-6.46-.85H302.25a34.85,34.85,0,0,0-34.85,34.86h0a34.85,34.85,0,0,0,34.85,34.85H379a25,25,0,0,0,25-25V479.91A25,25,0,0,0,385.5,455.76Z"/><path d="M385.5,372.13a25,25,0,0,0-6.46-.85H302.25a34.85,34.85,0,0,0-34.85,34.86h0A34.85,34.85,0,0,0,302.25,441H379a25,25,0,0,0,25-25V396.28A25,25,0,0,0,385.5,372.13Z"/><path d="M385.5,288.5a25,25,0,0,0-6.46-.85H302.25a34.85,34.85,0,0,0-34.85,34.86h0a34.85,34.85,0,0,0,34.85,34.85H379a25,25,0,0,0,25-25V312.65A25,25,0,0,0,385.5,288.5Z"/><path d="M385.5,204.87A25,25,0,0,0,379,204H302.25a34.85,34.85,0,0,0-34.85,34.85h0a34.85,34.85,0,0,0,34.85,34.86H379a25,25,0,0,0,25-25V229A25,25,0,0,0,385.5,204.87Z"/></g></g></svg>