<svg xmlns="http://www.w3.org/2000/svg" viewBox="0 0 849.8 379.95"><defs><style>.cls-1{fill:#fff;}.cls-2{fill:none;}.cls-3{fill:#cccccb;}.cls-4{fill:#010101;}</style></defs><title>smile_teeth</title><g id="Layer_2" data-name="Layer 2"><g id="Layer_1-2" data-name="Layer 1"><path class="cls-1" d="M838.86,26.74c-2.54-.67-63.2-16.53-144.41-23.53-47.83-4.13-92.81-4.27-133.69-.43-51.65,4.85-97,16.13-134.68,33.53a1.9,1.9,0,0,1-2.36,0C386,18.91,340.69,7.63,289,2.78c-40.87-3.84-85.85-3.7-133.68.43-81.21,7-141.87,22.86-144.41,23.53h0A14.7,14.7,0,0,0,.8,45.72h0c1.05,3,26.26,75.27,85.38,152.57,34.85,45.56,74.3,83.35,117.24,112.32,54,36.39,113.55,58.84,177.09,66.72A349.69,349.69,0,0,0,423.67,380a411.29,411.29,0,0,0,45.43-2.6c63.69-7.05,123.38-29,177.42-65.23,43-28.83,82.45-66.69,117.28-112.54C822.87,121.83,848,48.72,849,45.65h0a14.7,14.7,0,0,0-10.16-18.91Z"/><path class="cls-2" d="M496.06,248.68a689.86,689.86,0,0,0,80.36-19.18V149.4c-26.27,4.49-53.26,8.17-80.36,10.65Z"/><path class="cls-2" d="M383.25,162.25v90.6a365.74,365.74,0,0,0,41.43,2.56h.55a370.63,370.63,0,0,0,41.43-2.5V162.25c-13.93.81-27.85,1.26-41.66,1.31S397.22,163.05,383.25,162.25Z"/><path class="cls-2" d="M127.56,148.17c2.33,2.05,4.65,4.05,7,6V117.5c-20.19-5.8-38.73-11.65-55.13-17.22A584.59,584.59,0,0,0,127.56,148.17Z"/><path class="cls-2" d="M273.5,229.45a710.3,710.3,0,0,0,80.36,19.13V160.05c-27.11-2.49-54.09-6.16-80.36-10.65Z"/><path class="cls-2" d="M715.38,154.2c2.32-2,4.65-4,7-6a584.59,584.59,0,0,0,48.15-47.89c-16.39,5.57-34.93,11.42-55.12,17.22Z"/><path class="cls-2" d="M605.81,220c26.48-9.22,53.31-23.55,80.17-42.78V125.58c-25.08,6.59-52.06,12.9-80.17,18.42Z"/><path class="cls-2" d="M163.93,177.19c26.87,19.23,53.69,33.56,80.17,42.78V144C216,138.48,189,132.17,163.93,125.58Z"/><path class="cls-3" d="M134.54,99.26c-29.95-8.6-56.28-17.32-77.35-25.06,6.47,8,13.91,16.82,22.22,26.08,16.4,5.57,34.94,11.42,55.13,17.22Z"/><path class="cls-3" d="M576.42,149.4V131.16c-26.27,4.49-53.26,8.17-80.36,10.65v18.24C523.16,157.57,550.15,153.89,576.42,149.4Z"/><path class="cls-3" d="M715.38,99.26V117.5c20.19-5.8,38.73-11.65,55.12-17.22C778.82,91,786.25,82.2,792.72,74.2,771.65,81.94,745.33,90.66,715.38,99.26Z"/><path class="cls-3" d="M686,125.58V107.34c-25.08,6.59-52.06,12.9-80.17,18.42V144C633.92,138.48,660.9,132.17,686,125.58Z"/><path class="cls-3" d="M244.1,144V125.76C216,120.24,189,113.93,163.93,107.34v18.24C189,132.17,216,138.48,244.1,144Z"/><path class="cls-3" d="M383.25,144v18.24q21,1.2,41.75,1.31c13.81-.05,27.73-.5,41.66-1.31V144c-13.93.8-27.85,1.26-41.66,1.31S397.22,144.81,383.25,144Z"/><path class="cls-3" d="M353.86,160.05V141.81c-27.11-2.49-54.09-6.16-80.36-10.65V149.4C299.77,153.89,326.75,157.56,353.86,160.05Z"/><path class="cls-4" d="M838.86,26.74c-2.54-.67-63.2-16.53-144.41-23.53-47.83-4.13-92.81-4.27-133.69-.43-51.65,4.85-97,16.13-134.68,33.53a1.9,1.9,0,0,1-2.36,0C386,18.91,340.69,7.63,289,2.78c-40.87-3.84-85.85-3.7-133.68.43-81.21,7-141.87,22.86-144.41,23.53h0A14.7,14.7,0,0,0,.8,45.72h0c1.05,3,26.26,75.27,85.38,152.57,34.85,45.56,74.3,83.35,117.24,112.32,54,36.39,113.55,58.84,177.09,66.72A349.69,349.69,0,0,0,423.67,380a411.29,411.29,0,0,0,45.43-2.6c63.69-7.05,123.38-29,177.42-65.23,43-28.83,82.45-66.69,117.28-112.54C822.87,121.83,848,48.72,849,45.65h0a14.7,14.7,0,0,0-10.16-18.91ZM127.7,148A611.23,611.23,0,0,1,57.38,74.07c21.05,7.74,47.36,16.45,77.29,25.05V154Q131.19,151.07,127.7,148Zm36.35-40.8c25.06,6.58,52,12.89,80.11,18.41v94.15c-26.46-9.22-53.27-23.53-80.11-42.75ZM273.54,131c26.25,4.49,53.22,8.16,80.31,10.64V248.34a709.87,709.87,0,0,1-80.31-19.12Zm109.68,12.84c14,.81,27.9,1.27,41.73,1.31s27.7-.5,41.63-1.3V252.66a370.26,370.26,0,0,1-41.4,2.51h-.56a365.21,365.21,0,0,1-41.4-2.56ZM496,141.64C523,139.16,550,135.48,576.26,131v98.27A689.43,689.43,0,0,1,496,248.44Zm109.69-16c28.08-5.52,55.05-11.82,80.11-18.41V177c-26.85,19.22-53.66,33.53-80.11,42.75ZM715.13,99.12c29.93-8.6,56.24-17.31,77.29-25.05A611.23,611.23,0,0,1,722.1,148q-3.48,3.07-7,6ZM157.87,32.47C288.36,21.22,367.77,42.85,411.42,63a30.88,30.88,0,0,0,27,0h0c43.57-20.09,122.83-41.71,253-30.55,36.77,3.15,69.56,8.27,94.15,12.86-74.84,27.93-223.26,70-360.62,70.48C287.5,115.33,139.07,73.21,64.23,45.28,88.68,40.72,121.26,35.63,157.87,32.47ZM630.15,287.72c-50.06,33.58-105.34,53.91-164.28,60.43-29.14,3.23-55.87,3.24-81.75,0-58.73-7.29-113.85-28-163.83-61.63C180,259.48,143,224,110.07,181.16c-7.28-9.47-14-18.9-20.25-28.14q8.87,8.53,18.47,17c44.53,39.21,89.78,66.19,134.5,80.19,1.81.57,3.94,1.24,6,2,25.76,9,107.51,32.35,175.87,32.35h.54c82.36,0,172.07-31,175.85-32.35,2.05-.72,4.17-1.39,6-2,44.72-14,90-41,134.5-80.19,7.32-6.44,14.32-13,21-19.46-6.73,10.22-14.08,20.69-22.09,31.23C707.54,225.07,670.45,260.7,630.15,287.72Z"/></g></g></svg>